<?xml version="1.0" encoding="utf-8"?>
<!-- Generator: Adobe Illustrator 25.2.1, SVG Export Plug-In . SVG Version: 6.00 Build 0)  -->
<svg version="1.1" id="Layer_1" xmlns="http://www.w3.org/2000/svg" xmlns:xlink="http://www.w3.org/1999/xlink" x="0px" y="0px"
	 viewBox="0 0 2825.43 1800" style="enable-background:new 0 0 2825.43 1800;" xml:space="preserve">
<style type="text/css">
	.st0{display:none;fill:#FFFFFF;}
	.st1{fill:#EAF3FA;}
	.st2{fill:#CDE7FA;}
	.st3{fill:#3452A3;}
	.st4{fill:#FFFFFF;}
	.st5{fill:#7BB7F5;}
	.st6{fill:#AFD2F6;}
	.st7{clip-path:url(#SVGID_2_);fill:#FC5347;}
	.st8{clip-path:url(#SVGID_2_);}
	.st9{fill:#183480;}
	.st10{fill:#FCBD88;}
	.st11{fill:#F2AA75;}
	.st12{fill:#FFC794;}
	.st13{fill:#F8BE45;}
	.st14{fill:#F2F2F2;}
	.st15{clip-path:url(#SVGID_4_);}
	.st16{fill:#3E5EBF;}
	.st17{fill:#E0312E;}
	.st18{fill:#EC463A;}
	.st19{fill:#F2F5FF;}
	.st20{clip-path:url(#SVGID_6_);}
	.st21{opacity:0.2;fill:#FFFFFF;}
	.st22{fill:#5F78D4;}
	.st23{fill:#405DB3;}
	.st24{fill:#FFC73D;}
	.st25{fill:#F89D34;}
	.st26{fill:#FCC3A6;}
	.st27{fill:#1B3585;}
	.st28{fill:#67A1EF;}
	.st29{fill:#418BEF;}
	.st30{fill:#F2B698;}
	.st31{fill:#233772;}
	.st32{fill:#FEFEFE;}
	.st33{fill:#204094;}
	.st34{fill:#D93843;}
	.st35{fill:#E8F2FF;}
	.st36{fill:#034E6E;}
	.st37{opacity:0.15;fill:#FFFFFF;}
	.st38{clip-path:url(#SVGID_8_);}
	.st39{clip-path:url(#SVGID_10_);fill:#FC5347;}
	.st40{clip-path:url(#SVGID_10_);}
	.st41{clip-path:url(#SVGID_12_);}
	.st42{clip-path:url(#SVGID_14_);}
	.st43{opacity:0.24;fill:#C7DCFF;}
	.st44{opacity:0.7;fill:#FFFFFF;}
	.st45{fill:#BAC1C9;}
	.st46{fill:#5899EF;}
</style>
<rect x="0" y="0" class="st0" width="2825.43" height="1800"/>
<path class="st1" d="M2423.96,1401.33c-36.48,113.54-101.17,184.37-182.73,228.32H555.9c-126.17-103.07-208.03-295.55-200.93-378.92
	c22.61-265,178.32-277.98,166.1-577.95c-14.72-361.36,218.98-492.86,684.93-298.96c242.02,100.71,791.91-208.89,943.06-12.21
	c131.34,170.91,51.45,406.19,201.59,484.74C2526.01,938.11,2471.09,1254.64,2423.96,1401.33z"/>
<ellipse class="st2" cx="1405.96" cy="1629.65" rx="871.42" ry="46.35"/>
<g>
	<g>
		<path class="st3" d="M1989.42,402.1v1193.64c0,17.59-13.2,31.84-29.53,31.84h-932.57c-16.34,0-29.53-14.24-29.53-31.84V402.1
			c0-17.51,13.2-31.79,29.53-31.79h932.57C1976.22,370.31,1989.42,384.59,1989.42,402.1z"/>
		<g>
			<rect x="1053.95" y="404.97" class="st4" width="885.05" height="1137.26"/>
			<g>
				<rect x="1433.7" y="486.61" class="st5" width="441.31" height="57.98"/>
				<rect x="1433.7" y="486.61" class="st3" width="57.98" height="57.98"/>
				<rect x="1433.7" y="560.58" class="st6" width="441.31" height="28.04"/>
				<rect x="1433.7" y="608.84" class="st6" width="441.31" height="28.04"/>
				<rect x="1433.7" y="657.09" class="st6" width="441.31" height="28.04"/>
				<rect x="1433.7" y="705.35" class="st6" width="441.31" height="28.04"/>
			</g>
			<g>
				<rect x="1433.7" y="843.29" class="st5" width="441.31" height="57.98"/>
				<rect x="1433.7" y="843.29" class="st3" width="57.98" height="57.98"/>
				<rect x="1433.7" y="917.26" class="st6" width="441.31" height="28.04"/>
				<rect x="1433.7" y="965.52" class="st6" width="441.31" height="28.04"/>
				<rect x="1433.7" y="1013.78" class="st6" width="441.31" height="28.04"/>
				<rect x="1433.7" y="1062.03" class="st6" width="441.31" height="28.04"/>
			</g>
			<g>
				<rect x="1433.7" y="1199.97" class="st5" width="441.31" height="57.98"/>
				<rect x="1433.7" y="1199.97" class="st3" width="57.98" height="57.98"/>
				<rect x="1433.7" y="1273.94" class="st6" width="441.31" height="28.04"/>
				<rect x="1433.7" y="1322.2" class="st6" width="441.31" height="28.04"/>
				<rect x="1433.7" y="1370.46" class="st6" width="441.31" height="28.04"/>
				<rect x="1433.7" y="1418.72" class="st6" width="441.31" height="28.04"/>
			</g>
			<g>
				<defs>
					
						<ellipse id="SVGID_1_" transform="matrix(0.7071 -0.7071 0.7071 0.7071 -563.0757 1287.3438)" cx="1272.42" cy="1323.36" rx="133.08" ry="133.08"/>
				</defs>
				<clipPath id="SVGID_2_">
					<use xlink:href="#SVGID_1_"  style="overflow:visible;"/>
				</clipPath>
				<rect x="1124.06" y="1177.81" class="st7" width="302.38" height="285.32"/>
				<g class="st8">
					<path class="st9" d="M1238.45,1349.15c0,0,29.88-9.78,68.02,0c0,0,7.17-26.38,6.92-27.46c-0.25-1.08,0.57-23.15,0-24.23
						c-0.57-1.08-11.38-5.79-13.28-6.15c-1.91-0.36-38.14-6.32-42.28-4.97c-4.13,1.36-20.86,5.29-23.02,6.78
						c-2.16,1.49-11.94,4.34-11.94,4.34L1238.45,1349.15z"/>
					<path class="st3" d="M1238.48,1227.32c0,0-28.11,20.02-24.24,81.48c2.78,44.24,29.98,49.33,29.98,49.33s-16.6-37.92-7.44-55.71
						c9.17-17.78,13.16-42.56,13.16-42.56l-5.15-14.22L1238.48,1227.32z"/>
					<path class="st3" d="M1306.83,1228.53c0,0,28.11,20.03,24.24,81.48c-2.78,44.24-29.98,49.33-29.98,49.33s16.6-37.92,7.43-55.71
						c-9.16-17.78-13.16-42.56-13.16-42.56l5.15-14.22L1306.83,1228.53z"/>
					<path class="st10" d="M1231.99,1292.41c0,0-0.7-8.18-4.35-9.57c-3.66-1.39-1.22,19.84,1.57,25.76
						c2.78,5.92,5.44,8.12,5.44,8.12S1233.55,1300.42,1231.99,1292.41L1231.99,1292.41z"/>
					<path class="st11" d="M1295.48,1474.83v-144.79c-21.98,0-17.59,0-46.11,0v144.79H1295.48z"/>
					<path class="st12" d="M1310.02,1258.13l-15.47-9.22l-0.32-0.02l-54.77,6.55l-9.11,8.48c0,0-0.96,48.32,4.34,63.25
						c7.63,21.48,29.57,34,37.06,34.2c6.61,0.17,29.48-12.52,36.65-34.23c4.24-12.82,4.81-48.92,4.81-48.92L1310.02,1258.13z"/>
					<path class="st13" d="M1252.04,1474.83l-2.66-109.64c0,0-54.8,24.36-68.63,37.95c-14.06,13.82-18.28,28.95-19.59,71.69H1252.04
						z"/>
					<path class="st13" d="M1383.68,1474.83c-1.31-42.74-5.53-57.88-19.59-71.69c-13.82-13.58-68.63-37.95-68.63-37.95l-2.66,109.64
						H1383.68z"/>
					<polygon class="st14" points="1272.29,1443.73 1241.12,1409.14 1245.58,1474.83 1272.29,1474.83 1299,1474.83 1303.46,1409.14 
											"/>
					<path class="st4" d="M1295.19,1365.19l39.44,43.91c-22.39,0.86-51.09,22.78-62.34,34.63
						C1283.48,1415.68,1289.14,1396.97,1295.19,1365.19z"/>
					<path class="st4" d="M1249.39,1365.19l-39.44,43.91c22.39,0.86,51.09,22.78,62.35,34.63
						C1261.09,1415.68,1255.44,1396.97,1249.39,1365.19z"/>
					<path class="st10" d="M1311.59,1292.41c0,0,0.7-8.18,4.35-9.57c3.65-1.39,1.22,19.84-1.57,25.76
						c-2.79,5.92-3.81,6.81-3.81,6.81S1310.02,1300.42,1311.59,1292.41L1311.59,1292.41z"/>
					<path class="st3" d="M1313.4,1234.93c-11.35-14.93-27.27-18.5-40.79-18.15c-14.75,0.37-48.86,6.75-45.06,38.55
						c2.65,22.24,2.39,26.2,2.39,26.2l2.72,19.67l1.64-16.32c0,0,0.44-2.32,0.98-5.31c35.86,4.03,71.19-21.32,71.19-21.32
						s1.54,15.51,2.09,18.72c0.7,4.09,1.44,16.55,1.44,16.55l0.85,8.9c0,0,0.42-12.29,2.97-17.37c1.7-0.74,2.44,2.96,2.44,2.96
						S1325.75,1251.17,1313.4,1234.93z"/>
				</g>
			</g>
			<g>
				<defs>
					<circle id="SVGID_3_" cx="1272.42" cy="966.68" r="133.08"/>
				</defs>
				<clipPath id="SVGID_4_">
					<use xlink:href="#SVGID_3_"  style="overflow:visible;"/>
				</clipPath>
				<g class="st15">
					<rect x="1132.9" y="833.61" class="st13" width="279.08" height="276.87"/>
					<g>
						<rect x="1243.88" y="985.75" class="st11" width="57.11" height="45.17"/>
						<path class="st12" d="M1331.74,934.54c0,11.36-10.87,20.79-15.77,20.79c-2.44,0-0.18-16.67-0.18-28.5
							c0-4.79,4.42-9.68,9.32-9.68C1330.01,917.15,1331.74,923.18,1331.74,934.54z"/>
						<path class="st12" d="M1213.01,934.54c0,11.36,10.87,20.79,15.77,20.79c2.44,0,0.18-16.67,0.18-28.5
							c0-4.79-4.42-9.68-9.32-9.68C1214.75,917.15,1213.01,923.18,1213.01,934.54z"/>
						<path class="st12" d="M1316.22,895.77c-0.85-8.33-10.71-16-27.04-18.62c-5.53-0.89-11.13-1.03-16.74-0.79
							c-5.61-0.24-11.21-0.09-16.74,0.79c-16.33,2.62-26.19,10.29-27.04,18.62c-2.32,22.79-2.92,43.53-0.19,67.15
							c1.32,11.45,8.48,21.86,16.8,30.43c4.75,4.9,20,10.95,27.12,10.95c0.02,0,0.03,0,0.05,0c0.02,0,0.03,0,0.05,0
							c7.13,0,22.37-6.05,27.12-10.95c8.32-8.58,15.48-18.98,16.8-30.43C1319.13,939.29,1318.54,918.56,1316.22,895.77z"/>
						<path class="st3" d="M1229.64,899.77c0.72-7.66,4.06-8.93,10.65-12.89c6.96-4.19,15.11-2.36,23.23-2.16
							c8.63,0.21,18.08,0.15,26.71,0.36c4.59,0.11,14.58,0.64,18.1,3.58c3.77,3.15,2.91,6.56,2.69,11.47
							c-0.5,10.95,1.21,22.48,4.12,32.44c7.53-11.65,11.08-12.2,12.01-21.69c0.93-9.49,1.5-19.62-1.97-28.5
							c-4.57-11.67-11.47-24.22-23.04-29.04c-4.79-2-10.13-5.73-19.63,0.54c-7.35-3.65-12.54-4.32-20.43-3.65
							c-19.51,1.66-38.5,12.16-41.95,31.44c-3.05,17.03-0.36,36.93,8.25,50.91C1229.84,934.94,1228.71,909.63,1229.64,899.77z"/>
						<g>
							<polygon class="st4" points="1243.43,1014.98 1236.39,1023.4 1257.53,1110.97 1269.28,1110.97 1269.28,1029.73 							"/>
							<polygon class="st4" points="1301.64,1015.02 1308.49,1023.43 1287.35,1111.01 1275.6,1111.01 1275.57,1029.73 							"/>
							<path class="st3" d="M1383.92,1050.93l-75.43-27.5l-21.48,87.71h120.82l-10.84-45.52
								C1395.38,1058.84,1390.47,1053.32,1383.92,1050.93z"/>
							<path class="st3" d="M1160.96,1050.9l75.43-27.5l21.48,87.71h-120.82l10.84-45.52
								C1149.5,1058.8,1154.41,1053.28,1160.96,1050.9z"/>
							<polygon class="st16" points="1300.76,1055.02 1308.58,1023.46 1345.33,1036.87 1327.29,1045.14 1341.61,1054.98 
								1304.02,1110.47 1287.18,1110.47 							"/>
							<g>
								<path class="st17" d="M1275.57,1029.73c0,0-1.85,1.09-3.15,1.09c-1.3,0-3.15-1.09-3.15-1.09l-6.44,4.4l9.59,9.59l9.59-9.59
									L1275.57,1029.73z"/>
								<path class="st18" d="M1275.37,1038.75l-2.95-0.16l-2.95,0.16c-6.32,24.07-8.4,25.04-8.45,72.39c34.04,0-11.25,0,22.79,0
									C1283.77,1063.79,1281.69,1062.82,1275.37,1038.75z"/>
							</g>
							<polygon class="st19" points="1243.43,1014.98 1238.68,1020.65 1262.53,1050.56 1269.28,1029.73 							"/>
							<polygon class="st16" points="1244.12,1054.98 1236.3,1023.43 1199.54,1036.83 1217.59,1045.1 1203.27,1054.94 
								1240.86,1110.43 1257.7,1110.43 							"/>
							<polygon class="st19" points="1301.64,1015.02 1306.22,1020.65 1282.35,1050.6 1275.6,1029.77 							"/>
						</g>
					</g>
				</g>
			</g>
			<g>
				<defs>
					
						<ellipse id="SVGID_5_" transform="matrix(0.7071 -0.7071 0.7071 0.7071 -58.6513 1078.4043)" cx="1272.42" cy="610" rx="133.08" ry="133.08"/>
				</defs>
				<clipPath id="SVGID_6_">
					<use xlink:href="#SVGID_5_"  style="overflow:visible;"/>
				</clipPath>
				<g class="st20">
					<rect x="1132.88" y="476.49" class="st6" width="279.08" height="276.87"/>
					<polygon class="st11" points="1310.15,724.5 1234.69,724.5 1243.87,628.64 1300.98,628.64 					"/>
					<path class="st12" d="M1329.69,577.42c0,11.36-9.57,20.79-13.88,20.79c-2.15,0-0.16-16.67-0.16-28.5c0-4.79,3.89-9.68,8.2-9.68
						S1329.69,566.06,1329.69,577.42z"/>
					<path class="st12" d="M1215.37,577.42c0,11.36,9.35,20.79,13.56,20.79c2.1,0,0.15-16.67,0.15-28.5c0-4.79-3.8-9.68-8.01-9.68
						C1216.86,560.03,1215.37,566.06,1215.37,577.42z"/>
					<path class="st12" d="M1316.2,538.65c-0.85-8.33-10.71-16-27.04-18.62c-5.53-0.89-11.13-1.03-16.74-0.79
						c-5.61-0.24-11.21-0.09-16.74,0.79c-16.33,2.62-26.19,10.29-27.04,18.62c-2.32,22.79-2.92,43.52-0.19,67.15
						c1.32,11.45,8.48,21.86,16.8,30.43c4.75,4.9,20,10.95,27.12,10.95c0.02,0,0.03,0,0.05,0c0.02,0,0.03,0,0.05,0
						c7.13,0,22.37-6.05,27.12-10.95c8.32-8.58,15.48-18.98,16.8-30.43C1319.12,582.18,1318.52,561.45,1316.2,538.65z"/>
					<path class="st18" d="M1407.82,754.03l-10.84-45.52c-1.61-6.78-6.53-12.3-13.08-14.69l-66.53-24.26
						c-0.97-0.35-11.77-2.89-12.74-3.24c-20.71,14.69-24.14,17.45-33.15,17.45c-9.32,0-12.39-3.93-31.22-17.49l-79.32,27.5
						c-6.55,2.39-11.46,7.9-13.08,14.69l-10.84,45.52h120.82l-0.03-0.13h3.2c0,0.06,0,0.11,0,0.17c4.21,0,7.2,0,9.28,0
						c3.18,0,4.24,0,4.24,0c2.08,0,5.07,0,9.28,0c0-0.05,0-0.09,0-0.13h3.23l-0.03,0.13H1407.82z"/>
					<path class="st3" d="M1222.76,567.83l2.86,21.77l2.24-0.03c-0.02-1.26-0.5-19.4,0.24-20.41c5.11-7.01,3.4-12.51,8.44-21.02
						c0,0,10.92-11.87,25.9,7.07c11.58,14.63,33.52,15.65,33.52,15.65s-11.68-2.53-17.26-9.59c0,0,25.31,8.25,36.99,5.72
						c2.43,14.54,2.42,10.47,1.78,24.76l1.86-0.71c0,0,3.05-13.18,3.56-20.69c9.67-14.8,8.4-47.37-0.51-59.71
						c-29.11-40.33-80.36-13.63-80.36-13.63s-24.25,10.23-25.01,38.25C1216.26,561.93,1222.76,567.83,1222.76,567.83L1222.76,567.83
						z"/>
				</g>
			</g>
		</g>
		<g>
			<g>
				<g>
					<path class="st13" d="M1713.3,337.31c-11.7-5.29-24.65-8.37-38.29-8.73c-22.21-0.66-50.12-1.6-68.4-4.81
						c-11.53-2.03-19.23-4.96-19.23-9.3v-51.77c0-9.56-7.71-17.31-17.23-17.31h-42.28c20.47-28.12,1.09-68.31-34.23-68.97
						c-33.17,0-55.88,39.46-34.3,68.97h-42.25c-9.5,0-17.27,7.73-17.27,17.28v51.8c0,4.31-8.02,7.26-19.32,9.3
						c-25.92,4.67-69.11,4.56-72.55,5.01c-0.08,0.01-5.58,0.4-10.02,1.21c-7.63,1.36-13.64,3.28-14.88,3.77
						c-0.03-0.03-0.03,0-0.07,0c-29.07,9.38-52.45,33.07-61.12,63.05c-2.37,8.16-3.64,16.78-3.64,25.72v14.71H1769v-14.71
						C1769,384.32,1746.1,352.14,1713.3,337.31z M1489.06,190.41c3.85-0.59,3.45-0.33,4.14-0.36c0.13-0.07,0.27-0.07,0.44-0.07
						c15.04,0,27.23,12.22,27.23,27.3c0,17.22-15.7,28.6-27.7,27.27c-12.73,0.45-26.84-10.99-26.84-27.27
						C1466.33,202.35,1478.81,191.35,1489.06,190.41z"/>
				</g>
			</g>
			<path class="st21" d="M1675.01,328.57c-22.21-0.66-50.12-1.6-68.4-4.81c-11.53-2.03-19.23-4.96-19.23-9.3v-51.77
				c0-9.56-7.71-17.31-17.23-17.31h-42.28c20.47-28.12,1.09-68.31-34.23-68.97c-33.17,0-55.88,39.46-34.3,68.97h-42.25
				c-9.5,0-17.27,7.73-17.27,17.28v51.8c0,4.31-8.02,7.26-19.32,9.3c-25.92,4.67-69.11,4.56-72.55,5.01
				c-0.08,0.01-5.58,0.4-10.02,1.21c-7.63,1.36-13.64,3.28-14.88,3.77c-0.03-0.03-0.03,0-0.07,0
				c-29.07,9.38-52.45,33.07-61.12,63.05c52.37,12.34,109.21,19.1,168.62,19.1c124.85,0,238.37-29.85,322.83-78.6
				C1701.59,332.01,1688.64,328.93,1675.01,328.57z M1493.17,244.55c-12.73,0.45-26.84-10.99-26.84-27.27
				c0-14.93,12.48-25.93,22.73-26.87c3.85-0.59,3.45-0.33,4.14-0.36c0.13-0.07,0.27-0.07,0.44-0.07c15.04,0,27.23,12.22,27.23,27.3
				C1520.87,234.5,1505.17,245.88,1493.17,244.55z"/>
		</g>
	</g>
</g>
<g>
	<g>
		<g>
			<path class="st22" d="M2011.56,1360.99c31.12,20.45,56.69,19.23,69.39,4.99c12.69-14.25,2.18-26.65,6.56-29.17
				c4.57-2.63,6.7,0.28,10.15,3.95c15.81,16.79,39.78,16.23,51.78,0.67c29.89-38.76-10.12-114.84-10.12-114.84
				c-4.16,39.95-36.42,61.95-42.97,59.01c-7.41-3.33,34.2-47.28,35.13-68.41c0.47-10.69-33.65-46.68-33.65-46.68
				c3.02,48.12-15.87,83.33-21.6,82.27c-9.21-1.7,27.65-51.47,13.52-84.9c-7.38-17.46-40.95-22.71-40.95-22.71
				c18.37,27.32,5.66,86.7,0.22,87.19c-7.93,0.71,12.38-65.05-4.75-86.68c-7.15-9.03-39.85-4.48-39.85-4.48
				c28.58,31.72,20.44,60.76,18.42,61.05c-6.9,0.97-6.47-43.15-21.85-56.71c-13.94-12.3-20.22,10.66-40.58,1.47
				c3.14,19.82-21.65,35.18-16.03,46.12c17.1,33.29,64.87,38.49,64.19,47.83c-0.19,2.59-38.52-6.3-68.56-41.23
				c0,0-2.65,21.01,2.35,28.48c21.53,32.13,77.5,36.29,76.8,42.67c-0.21,1.9-43.49-0.29-75.61-32.89c0,0-0.5,36.04,14.37,50.07
				c28.5,26.89,74.66,2.62,78.08,11.73c1.9,5.07-30.77,18.17-71.08-0.88C1964.91,1298.9,1986.96,1344.83,2011.56,1360.99z
				 M2065.06,1249.51c-2.12,4.03-5.39,6.22-7.29,4.88c-1.9-1.34-1.72-5.69,0.4-9.72s5.39-6.22,7.29-4.88
				C2067.36,1241.12,2067.18,1245.47,2065.06,1249.51z M2081.08,1278.9c2.93-3.35,6.65-4.69,8.31-3c1.66,1.69,0.63,5.78-2.3,9.12
				s-6.65,4.69-8.31,3C2077.12,1286.33,2078.15,1282.25,2081.08,1278.9z M2033.73,1212.56c1.3-3.76,3.76-6.07,5.48-5.16
				s2.07,4.69,0.77,8.45c-1.3,3.76-3.76,6.07-5.48,5.16S2032.43,1216.32,2033.73,1212.56z M2005.76,1190.81
				c-1.3-3.43-1.21-6.55,0.19-6.96c1.4-0.41,3.6,2.04,4.89,5.48c1.3,3.43,1.21,6.55-0.19,6.96
				C2009.25,1196.7,2007.06,1194.25,2005.76,1190.81z M1996.2,1219.85c-0.21,1.57-3.04,2.03-6.32,1.03c-3.29-1-5.78-3.08-5.57-4.64
				c0.21-1.57,3.04-2.03,6.32-1.03S1996.41,1218.29,1996.2,1219.85z M2033.01,1289.26c0.02,2.27-3.73,3.54-8.38,2.85
				c-4.65-0.69-8.43-3.09-8.45-5.36c-0.02-2.27,3.73-3.54,8.37-2.85C2029.21,1284.59,2032.99,1286.99,2033.01,1289.26z
				 M2016.04,1252.15c0.02,1.94-3.19,3.02-7.15,2.43c-3.97-0.59-7.2-2.64-7.22-4.57c-0.02-1.94,3.19-3.02,7.15-2.43
				C2012.79,1248.17,2016.02,1250.21,2016.04,1252.15z M2037.37,1318.96c-1-2.66,2.35-6.01,7.48-7.5c5.13-1.48,10.1-0.53,11.1,2.13
				c1,2.66-2.35,6.01-7.48,7.5C2043.34,1322.57,2038.37,1321.62,2037.37,1318.96z"/>
		</g>
		<path class="st22" d="M2081.17,1316.16c9.95,12.03,19.4,23.63,27.97,35.91c4.25,6.15,8.37,12.38,12.05,18.92
			c0.9,1.65,1.84,3.28,2.71,4.94c0.83,1.7,1.72,3.35,2.52,5.07c0.8,1.72,1.64,3.41,2.33,5.2l1.08,2.65l0.99,2.62
			c5.22,13.99,8.81,28.53,11.49,43.22c2.79,14.7,4.49,29.56,7.06,44.47l-26.38-0.99c1.87-6.96,3.09-13.96,3.94-20.98
			c0.83-7.01,1.21-14.05,1.13-21.06c-0.22-14.01-2.39-27.99-6.97-41.16c-4.36-12.98-12.34-24.75-21.8-35.01
			c-4.75-5.13-9.9-9.9-15.42-14.18l-4.2-3.12c-1.45-0.97-2.87-1.98-4.34-2.92c-1.48-0.92-2.97-1.82-4.47-2.7
			c-1.55-0.8-3.06-1.66-4.63-2.41L2081.17,1316.16z"/>
	</g>
	<g>
		<g>
			<path class="st23" d="M2356.28,1382.04c-32.78-6.36-46.96-25.2-43.6-26.9c6.03-3.06,23.57,26.31,52.57,24.38
				c15.13-1.01,30.46-18.47,30.46-18.47c-33.68,3.28-60.95-12.3-60.25-13.29c2.35-3.33,38.18,16.19,65.21,9.07
				c6.28-1.66,13.78-12.74,13.78-12.74c-33.42,5.19-60.59-5.27-59.58-6.59c3.64-4.74,34.94,11.13,59.78,1.75
				c8.16-3.08-0.24-19.97,10.26-28.26c-16.37-3.42-10.22-16.84-24.04-16.3c-15.23,0.59-34.12,21.9-37.89,18.78
				c-1.1-0.91,6.54-17.96,37.69-22.18c0,0-17.9-14.75-26.17-13.17c-19.81,3.78-35.99,43.11-40.5,39.72
				c-3.09-2.32,14.94-35.67,37.96-41.7c0,0-22.69-10.38-34.75-4.85c-23.1,10.59-22.28,48.61-28.62,45.88
				c-3.94-1.69-0.15-25.83,22.56-47.73c0,0-36.36,4.14-40.71,9.44c-8.61,10.48-2.37,47.53-8.32,46.28
				c-5.26-1.11-15.33-24.05-0.53-44.79c0,0-57.34,21.09-55.98,51.15c0.55,12.07,14.88,21.55,31.78,19.58c3.69-0.43,6.25-1,7.89,2.01
				c1.57,2.89-10.21,4.79-8.67,16.5c1.54,11.7,16.55,22.11,44.35,24.27C2322.95,1395.57,2356.28,1382.04,2356.28,1382.04z
				 M2320.79,1315.07c1.74,0.09,2.77,2.39,2.31,5.14s-2.24,4.9-3.98,4.81c-1.74-0.09-2.77-2.39-2.31-5.14
				C2317.28,1317.13,2319.06,1314.98,2320.79,1315.07z M2291.76,1333.07c-1.74,0.17-3.42-1.9-3.75-4.63
				c-0.33-2.73,0.82-5.08,2.56-5.26c1.74-0.17,3.42,1.9,3.75,4.63C2294.65,1330.54,2293.51,1332.9,2291.76,1333.07z
				 M2347.76,1317.97c-1.44-0.23-1.93-2.28-1.09-4.58c0.84-2.3,2.69-3.98,4.13-3.76c1.44,0.23,1.93,2.28,1.09,4.58
				C2351.06,1316.51,2349.2,1318.19,2347.76,1317.97z M2372.98,1315.28c-0.68-0.74,0.62-2.26,2.9-3.41
				c2.28-1.15,4.68-1.48,5.35-0.74c0.68,0.74-0.62,2.26-2.9,3.41C2376.06,1315.69,2373.66,1316.02,2372.98,1315.28z
				 M2376.96,1332.05c2.43,0.78,3.95,2.09,3.4,2.92c-0.55,0.83-2.97,0.87-5.4,0.08c-2.43-0.78-3.95-2.09-3.4-2.92
				C2372.11,1331.3,2374.53,1331.26,2376.96,1332.05z M2326.52,1351.93c3.13,1.45,4.85,3.51,3.86,4.58c-1,1.08-4.34,0.77-7.46-0.68
				s-4.85-3.51-3.86-4.58C2320.05,1350.17,2323.39,1350.47,2326.52,1351.93z M2351.85,1340.57c2.67,1.24,4.14,2.99,3.29,3.92
				c-0.85,0.92-3.7,0.66-6.37-0.58c-2.67-1.24-4.14-2.99-3.29-3.92C2346.33,1339.07,2349.18,1339.33,2351.85,1340.57z
				 M2295.85,1360.56c-2.48-2.68-3.05-5.58-1.29-6.47c1.76-0.89,5.2,0.56,7.67,3.25c2.48,2.68,3.05,5.58,1.29,6.47
				C2301.76,1364.69,2298.32,1363.24,2295.85,1360.56z"/>
		</g>
		<path class="st23" d="M2276.62,1358c-5.14,1.05-10.34,3.07-15.33,5.53c-5,2.46-9.83,5.38-14.44,8.62
			c-9.23,6.48-17.59,14.27-24.71,22.99c-7.13,8.7-12.98,18.46-16.7,28.79c-3.66,10.31-5.15,21.29-3.04,31.34l-19.61,0
			c2.14-13.18,6.43-25.16,12.2-35.98c5.73-10.84,12.72-20.65,20.45-29.72c7.74-9.07,16.14-17.45,25.01-25.44
			c4.45-3.98,9.03-7.85,13.79-11.64c4.77-3.8,9.72-7.42,15.18-11.07L2276.62,1358z"/>
	</g>
	<g>
		<g>
			<path class="st5" d="M2351.81,1186.84c-42.54,34.53-85.37,28.46-84.59,21.86c1.41-11.88,63.61,3.58,89.76-36.86
				c13.64-21.09,2.5-63.96,2.5-63.96c-28.8,48.32-79.82,63.6-80.62,61.39c-2.7-7.42,62.89-28.76,79.18-73.41
				c3.79-10.38-5.53-34.68-5.53-34.68c-25.63,50.48-68.78,72.31-69.77,69.28c-3.55-10.95,51.95-31.14,62.62-75.88
				c3.51-14.7-30.58-25.78-32.63-50.36c-21.62,16.93-35.83-8.64-48.87,10.12c-14.38,20.69-0.96,73.23-9.48,74.08
				c-2.49,0.25-20.71-32.02,4.12-78.26c0,0-40.36,4.13-46.25,17.01c-14.12,30.84,29.37,103.38,19.7,104.85
				c-6.63,1.01-39.18-66.15-25.25-104.13c0,0-38.53,16.09-42.23,39.09c-7.08,44.04,51.49,92.66,40.98,97.38
				c-6.53,2.93-39.38-33.56-49.86-91.88c0,0-30.19,52.94-26.5,65.57c7.29,24.95,69.82,65.23,61.95,71.37
				c-6.96,5.43-51.91-11.39-68.56-57.85c0,0-25.49,102.52,21.54,140.04c18.88,15.06,47.66,8.72,61.61-15.95
				c3.05-5.39,4.74-9.48,10.96-7.68c5.97,1.73-2.95,19.61,16.36,32.9s50.19,7.26,81.36-26.26
				C2338.94,1248.12,2351.81,1186.84,2351.81,1186.84z M2214.5,1145.72c1.88-2.15,6.41-0.5,10.13,3.7c3.71,4.19,5.2,9.34,3.32,11.49
				c-1.88,2.15-6.41,0.5-10.13-3.7C2214.11,1153.01,2212.62,1147.87,2214.5,1145.72z M2212.72,1207.19
				c-1.49,2.5-6.32,1.99-10.8-1.15c-4.48-3.14-6.9-7.71-5.42-10.22c1.49-2.5,6.32-1.99,10.8,1.15S2214.21,1204.69,2212.72,1207.19z
				 M2245.95,1114.25c-1.79,1.59-5.4-0.45-8.05-4.56c-2.65-4.11-3.35-8.72-1.56-10.31c1.79-1.59,5.4,0.45,8.05,4.56
				S2247.75,1112.66,2245.95,1114.25z M2267.18,1077.77c-1.8-0.08-2.81-3.77-2.26-8.25c0.55-4.48,2.44-8.05,4.24-7.97
				c1.8,0.08,2.81,3.77,2.26,8.25C2270.88,1074.28,2268.98,1077.84,2267.18,1077.77z M2296.63,1094.49
				c3.63-2.15,7.14-2.43,7.85-0.62c0.71,1.81-1.66,5.02-5.29,7.17c-3.63,2.15-7.14,2.43-7.85,0.62
				C2290.63,1099.85,2293,1096.64,2296.63,1094.49z M2276.22,1186.41c5.34-2.19,10.19-1.76,10.83,0.95
				c0.64,2.71-3.17,6.68-8.52,8.87c-5.34,2.19-10.19,1.76-10.83-0.95C2267.07,1192.56,2270.88,1188.59,2276.22,1186.41z
				 M2284.38,1138.44c4.56-1.87,8.71-1.5,9.25,0.81c0.55,2.32-2.71,5.71-7.28,7.57c-4.56,1.87-8.71,1.5-9.25-0.81
				C2276.56,1143.7,2279.82,1140.31,2284.38,1138.44z M2258.57,1237.79c-6.56-0.27-11.54-3.3-11.12-6.76
				c0.42-3.46,6.07-6.06,12.63-5.79c6.56,0.27,11.54,3.3,11.12,6.76C2270.78,1235.46,2265.13,1238.06,2258.57,1237.79z"/>
		</g>
		<path class="st5" d="M2231.06,1271.78c-21.27,20.13-41.77,52.76-45.55,82.77c-2.92,23.15-6.47,61.14-3.31,115.51l-30.16,0.75
			c-0.01-57.06,10.27-96.75,21.71-132.33c7.32-22.76,21.67-52.73,43.24-81.81L2231.06,1271.78z"/>
	</g>
	<g>
		<g>
			<path class="st24" d="M2273.72,1437.81c-0.04,0.81-0.08,1.65-0.11,2.45c-0.04,0.73-0.08,1.42-0.11,2.15
				c-4.6,82.59-22.1,132.96-60.07,187.23h-91.33c-38.01-54.28-55.51-104.64-60.07-187.23c-0.08-1.53-0.15-3.07-0.23-4.6H2273.72z"/>
		</g>
		<path class="st25" d="M2273.72,1437.81c-0.08,1.53-0.15,3.07-0.23,4.6h-211.48c-0.08-1.53-0.15-3.07-0.23-4.6H2273.72z"/>
		<rect x="2048.17" y="1426.02" class="st25" width="239.14" height="13.73"/>
		<g>
			<path class="st24" d="M2273.61,1440.27c-0.04,0.73-0.08,1.42-0.11,2.15c-4.6,82.59-22.1,132.96-60.07,187.23h-91.33
				C2204.97,1597.86,2244.46,1539.79,2273.61,1440.27z"/>
		</g>
	</g>
</g>
<g>
	<path class="st26" d="M994.18,990.21l-14.77,20.26c0,0-56.41-31.36-93.21-55.51c11.97-7.15,17.94-18.61,26.06-29.83
		C938.72,948.16,994.18,990.21,994.18,990.21z"/>
	<path class="st27" d="M758.25,1571.87c1.93-2.48,23.69,3.38,35.97-1.58c7.21-2.92,10.69-6.7,14.33-6.7
		c7.08,0,18.67,25.74,50.49,31.8c15.57,2.97,34.17,7.03,35.01,14.88c0.77,7.15-3.49,11.55-9.33,11.55c-11.14,0-59.94,0-68.23,0
		c-2.35,0-33.74-12.79-33.74,0c-11.35,0-18.08,0-29.44,0C751.6,1619.99,750.11,1582.34,758.25,1571.87z"/>
	<path class="st27" d="M594.15,1608.21c1.38-5.13,11.36-30.99,11.36-33.72c0-4.73,0-11.83,0-11.83h23.74h21.67c0,0,0,7.1,0,11.83
		c0,2.74,12.06,28.59,13.43,33.72c1.38,5.13,0.36,13.61-4.95,13.61c-7.99,0-30.15,0-30.15,0s-22.16,0-30.15,0
		C593.79,1621.81,592.77,1613.34,594.15,1608.21z"/>
	<path class="st28" d="M784.15,785.55l8.68,68.08c58.31,78.69,64.18,78.69,84.48,99.37c7.45,7.59,43.21,27.89,71.74,43.4
		c12.6-5.94,20.55-10.98,33.96-17.11c-30.06-22.98-74.18-62.78-77.11-65.55c-3.34-3.18-58.52-119.83-98.63-127.69
		C803.56,785.31,787.49,785.22,784.15,785.55z"/>
	<path class="st3" d="M599.53,1575.49h59.94c30.32-245.64,64.18-312.04,75-346.34c15.41,30.53,31.64,67.93,31.46,79.47
		c0,0.15-10.61,198.95-14.48,264.09c2.74,0.16,5.67,0.34,9.08,0.44c12.25,0.44,38.78-0.68,60.5-2.63c0,0,36.23-244.8,36.24-272.44
		c0-25.68-35.72-168.2-38.94-230.19c-53.08,13.92-122.17,8.16-167.24-4.27c-5.6,7.07-11.87,37.51-15.06,65.05
		C608.97,1362.37,607.28,1408.5,599.53,1575.49z"/>
	<path class="st29" d="M783.27,818.34l12.23,66.5c0,0,21.8,1.68,40.24,24.47c-7.8-66.46-22.35-60.67-43.18-78.77
		C788.86,829.8,786.61,818.02,783.27,818.34z"/>
	<path class="st28" d="M819.58,1072.42c-9.8,39.54-160.11,21.89-173.75-1.85c18.68-67.17,25.6-116.83,14.32-168.16
		c-4.24-19.33-11.02-66.37-11.81-83.7c-0.7-15.31-2.47-19.91,6.51-23.88c9.91-4.38,139.78-11.57,149.66-8.68
		c26.69,7.81,21.42,54.6,25.69,98.47C832.71,910.46,829.98,998.44,819.58,1072.42z"/>
	<path class="st26" d="M645.83,1027.99l-22.47,19.32c0,0-35.53-52.74-59.6-95.57c11.69-6.23,24.45-14.77,34.76-22.79
		C612.51,959.22,645.83,1027.99,645.83,1027.99z"/>
	<g>
		<path class="st30" d="M698.02,789.24c4.52,28.35,69.38,18.5,62.44-7.16c-6.08-19.85-11.31-39.95-15.67-60.25
			c-9.03,1.18-34.83-10.83-43.84-9.54C698.3,726.03,704.62,747.77,698.02,789.24z"/>
		<g>
			<path class="st26" d="M716.25,768.22c24.42,16.45,38.66,5.32,44.88-4.68c9.16-14.61,10.74-39.69,8.21-56.59
				c-0.15-0.97-0.31-1.99-0.46-3.04c-0.15-1.14-0.29-2.32-0.47-3.5c-1.76-11.87-4.35-26.17-11.66-34.71
				c-9.28-10.83-24.89-17.03-38.47-13.89c-16.04,3.66-24.82,19.71-28.28,35.81C682.1,724.45,695.27,754.05,716.25,768.22z"/>
			<path class="st31" d="M680.55,737.37c-10.1-37.23-13.56-45.74-10.65-55.02c1.6-5.11,5.27-9.51,6.03-14.81
				c0.85-5.96-2.15-12-1.14-17.93c1.42-8.4,10.35-13.51,18.77-14.82s17.12-0.06,25.48-1.72c19.94-3.94,26.13-11.9,49.03-0.61
				c11.5,5.67,20.75,16.78,20.07,29.57c-0.3,5.59-5.55,12.3-10.84,14.16c-10.27,3.61-12.65-4.08-23.32-1.9
				c-7.75,1.59-18.01,14.19-39.25,9.26c-5.28-1.22-15.23-5.51-21.09,0.2c-4.16,4.05-4.75,9.75-3.98,15.5
				c1.55,11.54,0.64,23.09,3.54,38.03c0.65,3.35-0.69,5.73-4.98,7.28C683.82,746.18,681.45,740.7,680.55,737.37z"/>
			<path class="st26" d="M691.18,716.27c-0.89-0.76-3.39-2.09-4.48-2.5c-1.09-0.41-2.41-0.41-3.33,0.32
				c-1.32,1.05-1.28,3.04-1.12,4.72c0.21,2.17,0.42,4.34,0.63,6.51c0.19,1.93,0.38,3.89,1.12,5.69c0.73,1.8,2.1,3.43,3.95,4.02
				c1.85,0.59,4.16-0.15,4.96-1.91L691.18,716.27z"/>
			<g>
				<path class="st32" d="M754.18,741.5c-10.11,1.13-22.54,1.01-28.35-0.55c0,0,2.33,13.69,13.91,13.91
					C751.43,755.09,754.18,741.5,754.18,741.5z"/>
			</g>
		</g>
	</g>
	<g>
		<path class="st4" d="M780.5,873.04c11.72,0,24.34-1.82,33.51-4.93c0.76-0.26,1.17-1.09,0.91-1.85c-0.26-0.76-1.09-1.17-1.85-0.91
			c-10.41,3.53-25.44,5.34-38.3,4.62c-0.79-0.05-1.49,0.57-1.54,1.37c-0.05,0.8,0.57,1.49,1.37,1.54
			C776.53,872.99,778.5,873.04,780.5,873.04z"/>
	</g>
	<path class="st33" d="M765.93,1308.62c0,0.15-10.61,198.95-14.48,264.09c2.74,0.16,2.26,0.23,5.67,0.34
		c3.58-65.19,17.39-229.89,18.37-264.51c0.49-17.06-20.07-56.25-25.03-74.44c-2.36-8.68-10.33-64.37-12.01-96.75l-3.99,91.81
		C749.87,1259.68,766.1,1297.09,765.93,1308.62z"/>
	<polygon class="st34" points="737.65,805.2 764.89,823.84 748.27,846.5 719.74,830.35 	"/>
	<path class="st35" d="M759.41,777.79c21.64,1.22,20.98,28.94,7.65,54.27c0,0-9.95-18.47-29.41-26.85
		C755.16,796.14,759.41,777.79,759.41,777.79z"/>
	<path class="st35" d="M737.65,805.2c-22.64-3.41-33.28-12.54-38.65-22.69c0,0-18.86,4.65-16.56,16.75
		c2.3,12.11,40.25,37.83,40.25,37.83S727.12,814.83,737.65,805.2z"/>
	<path class="st34" d="M752.62,835.47c18.25,47.71,29.18,96.21,27.5,144.08l-17.45,31.89l-30.2-32.52
		c8.81-46.76,5.38-139.25,5.38-139.25L752.62,835.47z"/>
	<g>
		<path class="st36" d="M586.1,1123.2l430.1-164.1l17.06,44.47l-430.1,164.1C574.92,1157.97,568.66,1149.11,586.1,1123.2z"/>
		<path class="st18" d="M515.85,1170.08l3.16,8.28c5.13,13.44,16.97,22.35,30.26,24.35c6.33,0.95,12.98,0.34,19.39-2.11
			l369.38-139.96l2.29-0.88c6.73-2.57,10.11-10.1,7.54-16.83l-21.27-55.8c-2.57-6.73-10.09-10.1-16.82-7.53l-371.68,140.84
			C518.24,1128,508.28,1150.23,515.85,1170.08z"/>
		<path class="st37" d="M545.94,1194.21l2.53,6.63c0.24,0.64,0.5,1.26,0.79,1.87c6.33,0.95,12.98,0.34,19.39-2.11l369.38-139.96
			l-12.27-32.17c-2.06-5.39-8.71-7.86-14.86-5.51l-343.05,129.93C549.69,1159.81,539.88,1178.31,545.94,1194.21z"/>
		<g>
			<path class="st36" d="M1001.13,862.5c-2.67,34.95,1.33,71,12.88,106.39c45.16,138.32,189.34,216.6,328.35,181.93
				c6.39-1.59,12.76-3.41,19.11-5.49c120.78-39.43,195.78-154.37,189.77-275.44c-1.18-23.95-5.54-48.13-13.34-72.02
				c-40.99-125.59-163.65-201.69-289.94-188.67c-19.18,1.97-38.45,6-57.52,12.23C1081.18,657.11,1009.38,754.59,1001.13,862.5z
				 M1200.37,651.8c21.3-6.95,42.88-10.81,64.24-11.82c106.83-5.05,208.15,61.21,242.95,167.8c5.65,17.32,9.26,34.82,10.95,52.23
				c10.82,111.16-56.35,218.85-166.93,254.95c-9.34,3.05-18.72,5.5-28.12,7.38c-119.35,23.88-240.36-44.79-279.07-163.36
				c-8.75-26.81-12.59-54.04-12.04-80.71C1034.45,777.64,1099.27,684.81,1200.37,651.8z"/>
			<g>
				<defs>
					<path id="SVGID_7_" d="M1351.57,1114.97c127.9-41.75,197.74-179.28,155.98-307.19c-41.75-127.9-179.28-197.74-307.18-155.98
						c-127.9,41.75-197.74,179.28-155.98,307.18C1086.13,1086.89,1223.67,1156.72,1351.57,1114.97z"/>
				</defs>
				<clipPath id="SVGID_8_">
					<use xlink:href="#SVGID_7_"  style="overflow:visible;"/>
				</clipPath>
				<g class="st38">
					<rect x="999.77" y="296.85" class="st4" width="983.82" height="1264.18"/>
					<g>
						<rect x="1421.91" y="387.6" class="st5" width="490.57" height="64.45"/>
						<rect x="1421.91" y="387.6" class="st3" width="64.45" height="64.45"/>
						<rect x="1421.91" y="469.82" class="st6" width="490.57" height="31.17"/>
						<rect x="1421.91" y="523.47" class="st6" width="490.57" height="31.17"/>
						<rect x="1421.91" y="577.11" class="st6" width="490.57" height="31.17"/>
						<rect x="1421.91" y="630.76" class="st6" width="490.57" height="31.17"/>
					</g>
					<g>
						<rect x="1421.91" y="784.09" class="st5" width="490.57" height="64.45"/>
						<rect x="1421.91" y="784.09" class="st3" width="64.45" height="64.45"/>
						<rect x="1421.91" y="866.31" class="st6" width="490.57" height="31.17"/>
						<rect x="1421.91" y="919.96" class="st6" width="490.57" height="31.17"/>
						<rect x="1421.91" y="973.6" class="st6" width="490.57" height="31.17"/>
						<rect x="1421.91" y="1027.24" class="st6" width="490.57" height="31.17"/>
					</g>
					<g>
						<rect x="1421.91" y="1180.57" class="st5" width="490.57" height="64.45"/>
						<rect x="1421.91" y="1180.57" class="st3" width="64.45" height="64.45"/>
						<rect x="1421.91" y="1262.8" class="st6" width="490.57" height="31.17"/>
						<rect x="1421.91" y="1316.45" class="st6" width="490.57" height="31.17"/>
						<rect x="1421.91" y="1370.09" class="st6" width="490.57" height="31.17"/>
						<rect x="1421.91" y="1423.73" class="st6" width="490.57" height="31.17"/>
					</g>
					<g>
						<defs>
							
								<ellipse id="SVGID_9_" transform="matrix(0.7071 -0.7071 0.7071 0.7071 -567.8253 1264.6284)" cx="1242.63" cy="1317.74" rx="147.93" ry="147.93"/>
						</defs>
						<clipPath id="SVGID_10_">
							<use xlink:href="#SVGID_9_"  style="overflow:visible;"/>
						</clipPath>
						<rect x="1077.7" y="1155.95" class="st39" width="336.13" height="317.17"/>
						<g class="st40">
							<path class="st9" d="M1204.87,1346.4c0,0,33.21-10.88,75.61,0c0,0,7.97-29.32,7.7-30.53c-0.28-1.21,0.63-25.73,0-26.94
								c-0.63-1.2-12.65-6.43-14.77-6.83c-2.12-0.4-42.4-7.03-47-5.53c-4.59,1.51-23.19,5.88-25.59,7.54
								c-2.4,1.65-13.28,4.82-13.28,4.82L1204.87,1346.4z"/>
							<path class="st3" d="M1204.9,1210.98c0,0-31.25,22.26-26.95,90.57c3.09,49.18,33.32,54.84,33.32,54.84
								s-18.45-42.15-8.27-61.93c10.19-19.76,14.63-47.31,14.63-47.31l-5.73-15.81L1204.9,1210.98z"/>
							<path class="st3" d="M1280.87,1212.33c0,0,31.25,22.26,26.95,90.57c-3.09,49.18-33.32,54.84-33.32,54.84
								s18.45-42.16,8.26-61.92c-10.19-19.77-14.63-47.31-14.63-47.31l5.72-15.81L1280.87,1212.33z"/>
							<path class="st10" d="M1197.68,1283.33c0,0-0.78-9.09-4.84-10.64c-4.07-1.55-1.36,22.06,1.74,28.63
								c3.09,6.58,6.05,9.03,6.05,9.03S1199.42,1292.23,1197.68,1283.33L1197.68,1283.33z"/>
							<path class="st11" d="M1268.26,1486.11v-160.95c-24.44,0-19.56,0-51.26,0v160.95H1268.26z"/>
							<path class="st12" d="M1284.42,1245.22l-17.19-10.24l-0.35-0.03l-60.88,7.29l-10.13,9.42c0,0-1.07,53.71,4.83,70.31
								c8.48,23.88,32.87,37.79,41.19,38.02c7.35,0.19,32.77-13.92,40.74-38.05c4.71-14.25,5.34-54.38,5.34-54.38L1284.42,1245.22z"
								/>
							<path class="st13" d="M1219.98,1486.11l-2.95-121.88c0,0-60.92,27.08-76.29,42.18c-15.63,15.36-20.32,32.18-21.78,79.69
								H1219.98z"/>
							<path class="st13" d="M1366.3,1486.11c-1.46-47.51-6.15-64.34-21.78-79.69c-15.37-15.1-76.29-42.18-76.29-42.18l-2.95,121.88
								H1366.3z"/>
							<polygon class="st14" points="1242.48,1451.54 1207.83,1413.08 1212.79,1486.11 1242.48,1486.11 1272.17,1486.11 
								1277.13,1413.08 							"/>
							<path class="st4" d="M1267.94,1364.23l43.85,48.81c-24.89,0.95-56.79,25.33-69.3,38.49
								C1254.92,1420.36,1261.21,1399.57,1267.94,1364.23z"/>
							<path class="st4" d="M1217.02,1364.23l-43.85,48.81c24.89,0.95,56.79,25.33,69.3,38.49
								C1230.04,1420.36,1223.75,1399.57,1217.02,1364.23z"/>
							<path class="st10" d="M1286.17,1283.33c0,0,0.78-9.09,4.84-10.64c4.06-1.55,1.35,22.06-1.74,28.63
								c-3.1,6.58-4.23,7.57-4.23,7.57S1284.42,1292.23,1286.17,1283.33L1286.17,1283.33z"/>
							<path class="st3" d="M1288.18,1219.44c-12.62-16.6-30.32-20.56-45.35-20.18c-16.4,0.42-54.31,7.5-50.08,42.86
								c2.95,24.72,2.66,29.13,2.66,29.13l3.02,21.86l1.82-18.14c0,0,0.49-2.58,1.09-5.9c39.87,4.48,79.14-23.7,79.14-23.7
								s1.71,17.24,2.32,20.81c0.78,4.55,1.61,18.4,1.61,18.4l0.94,9.89c0,0,0.47-13.66,3.3-19.31c1.89-0.82,2.71,3.3,2.71,3.3
								S1301.91,1237.49,1288.18,1219.44z"/>
						</g>
					</g>
					<g>
						<defs>
							<circle id="SVGID_11_" cx="1242.63" cy="921.25" r="147.93"/>
						</defs>
						<clipPath id="SVGID_12_">
							<use xlink:href="#SVGID_11_"  style="overflow:visible;"/>
						</clipPath>
						<g class="st41">
							<rect x="1087.53" y="773.32" class="st13" width="310.23" height="307.76"/>
							<g>
								<rect x="1210.9" y="942.45" class="st11" width="63.49" height="50.21"/>
								<path class="st12" d="M1308.56,885.52c0,12.63-12.09,23.11-17.53,23.11c-2.72,0-0.2-18.53-0.2-31.68
									c0-5.32,4.91-10.76,10.36-10.76C1306.64,866.19,1308.56,872.89,1308.56,885.52z"/>
								<path class="st12" d="M1176.59,885.52c0,12.63,12.09,23.11,17.53,23.11c2.72,0,0.2-18.53,0.2-31.68
									c0-5.32-4.91-10.76-10.36-10.76C1178.51,866.19,1176.59,872.89,1176.59,885.52z"/>
								<path class="st12" d="M1291.31,842.42c-0.94-9.26-11.91-17.78-30.05-20.69c-6.15-0.99-12.37-1.14-18.61-0.88
									c-6.24-0.26-12.46-0.1-18.61,0.88c-18.15,2.91-29.11,11.44-30.06,20.69c-2.58,25.34-3.24,48.38-0.22,74.65
									c1.47,12.73,9.42,24.29,18.67,33.83c5.28,5.45,22.23,12.17,30.15,12.17c0.02,0,0.04,0,0.05,0c0.02,0,0.04,0,0.05,0
									c7.92,0,24.87-6.73,30.15-12.17c9.25-9.53,17.21-21.1,18.67-33.83C1294.55,890.81,1293.89,867.76,1291.31,842.42z"/>
								<path class="st3" d="M1195.07,846.87c0.8-8.51,4.51-9.92,11.84-14.33c7.73-4.65,16.8-2.62,25.82-2.4
									c9.59,0.23,20.1,0.17,29.69,0.4c5.1,0.12,16.21,0.71,20.12,3.98c4.19,3.5,3.24,7.29,2.99,12.75
									c-0.56,12.17,1.35,24.99,4.58,36.07c8.37-12.95,12.32-13.56,13.35-24.11c1.03-10.55,1.67-21.81-2.19-31.68
									c-5.07-12.98-12.75-26.92-25.61-32.28c-5.32-2.22-11.26-6.38-21.82,0.6c-8.17-4.06-13.94-4.81-22.72-4.06
									c-21.69,1.84-42.79,13.52-46.63,34.94c-3.39,18.93-0.4,41.05,9.17,56.59C1195.3,885.97,1194.03,857.83,1195.07,846.87z"/>
								<g>
									<polygon class="st4" points="1210.4,974.94 1202.57,984.29 1226.07,1081.64 1239.13,1081.64 1239.13,991.34 									"/>
									<polygon class="st4" points="1275.1,974.98 1282.72,984.34 1259.22,1081.68 1246.16,1081.68 1246.13,991.34 									"/>
									<path class="st3" d="M1366.57,1014.91l-83.85-30.57l-23.88,97.5h134.31l-12.05-50.6
										C1379.31,1023.69,1373.85,1017.56,1366.57,1014.91z"/>
									<path class="st3" d="M1118.72,1014.86l83.85-30.57l23.88,97.5h-134.31l12.05-50.6
										C1105.98,1023.65,1111.44,1017.52,1118.72,1014.86z"/>
									<polygon class="st16" points="1274.12,1019.45 1282.82,984.37 1323.68,999.27 1303.62,1008.46 1319.53,1019.4 
										1277.75,1081.09 1259.03,1081.09 									"/>
									<g>
										<path class="st17" d="M1246.13,991.34c0,0-2.05,1.21-3.5,1.21c-1.44,0-3.5-1.21-3.5-1.21l-7.16,4.89l10.66,10.66
											l10.66-10.66L1246.13,991.34z"/>
										<path class="st18" d="M1245.91,1001.36l-3.28-0.17l-3.28,0.17c-7.03,26.76-9.34,27.83-9.39,80.47c37.84,0-12.5,0,25.34,0
											C1255.24,1029.19,1252.93,1028.12,1245.91,1001.36z"/>
									</g>
									<polygon class="st19" points="1210.4,974.94 1205.12,981.24 1231.63,1014.49 1239.13,991.34 									"/>
									<polygon class="st16" points="1211.17,1019.4 1202.47,984.33 1161.62,999.22 1181.68,1008.42 1165.76,1019.36 
										1207.54,1081.04 1226.26,1081.04 									"/>
									<polygon class="st19" points="1275.1,974.98 1280.2,981.24 1253.66,1014.54 1246.16,991.38 									"/>
								</g>
							</g>
						</g>
					</g>
					<g>
						<defs>
							
								<ellipse id="SVGID_13_" transform="matrix(0.7071 -0.7071 0.7071 0.7071 -7.1057 1032.3707)" cx="1242.63" cy="524.76" rx="147.93" ry="147.93"/>
						</defs>
						<clipPath id="SVGID_14_">
							<use xlink:href="#SVGID_13_"  style="overflow:visible;"/>
						</clipPath>
						<g class="st42">
							<rect x="1087.51" y="376.35" class="st6" width="310.23" height="307.76"/>
							<polygon class="st11" points="1284.57,652.04 1200.69,652.04 1210.89,545.48 1274.37,545.48 							"/>
							<path class="st12" d="M1306.29,488.55c0,12.63-10.63,23.11-15.43,23.11c-2.39,0-0.18-18.53-0.18-31.68
								c0-5.32,4.32-10.76,9.12-10.76C1304.59,469.22,1306.29,475.92,1306.29,488.55z"/>
							<path class="st12" d="M1179.21,488.55c0,12.63,10.39,23.11,15.08,23.11c2.33,0,0.17-18.53,0.17-31.68
								c0-5.32-4.22-10.76-8.91-10.76C1180.86,469.22,1179.21,475.92,1179.21,488.55z"/>
							<path class="st12" d="M1291.29,445.45c-0.94-9.26-11.91-17.78-30.05-20.69c-6.15-0.99-12.37-1.14-18.61-0.88
								c-6.24-0.26-12.46-0.1-18.61,0.88c-18.15,2.91-29.11,11.44-30.05,20.69c-2.58,25.34-3.24,48.38-0.22,74.65
								c1.47,12.73,9.42,24.29,18.67,33.83c5.28,5.45,22.23,12.17,30.15,12.17c0.02,0,0.04,0,0.05,0c0.02,0,0.04,0,0.05,0
								c7.92,0,24.87-6.73,30.15-12.17c9.25-9.53,17.21-21.1,18.67-33.83C1294.54,493.84,1293.87,470.79,1291.29,445.45z"/>
							<path class="st18" d="M1393.14,684.86l-12.05-50.6c-1.79-7.54-7.26-13.67-14.54-16.32l-73.96-26.96
								c-1.08-0.39-13.08-3.21-14.16-3.61c-23.02,16.33-26.84,19.4-36.85,19.4c-10.36,0-13.77-4.36-34.7-19.44l-88.18,30.57
								c-7.28,2.65-12.74,8.79-14.54,16.33l-12.05,50.6h134.31l-0.04-0.15h3.55c0,0.07,0,0.13,0,0.19c4.68,0,8,0,10.31,0
								c3.54,0,4.72,0,4.71,0c2.32,0,5.64,0,10.31,0c0-0.05,0-0.1,0-0.15h3.59l-0.04,0.15H1393.14z"/>
							<path class="st3" d="M1187.42,477.88l3.18,24.2l2.49-0.04c-0.02-1.4-0.56-21.57,0.26-22.69c5.68-7.79,3.78-13.91,9.39-23.36
								c0,0,12.14-13.19,28.79,7.86c12.87,16.27,37.26,17.4,37.26,17.4s-12.98-2.81-19.19-10.66c0,0,28.14,9.17,41.12,6.36
								c2.7,16.17,2.69,11.63,1.98,27.53l2.06-0.78c0,0,3.39-14.65,3.95-23c10.75-16.45,9.34-52.65-0.57-66.38
								c-32.36-44.83-89.33-15.15-89.33-15.15s-26.96,11.37-27.8,42.52C1180.2,471.33,1187.42,477.88,1187.42,477.88L1187.42,477.88
								z"/>
						</g>
					</g>
				</g>
			</g>
			<path class="st43" d="M1351.57,1114.97c127.9-41.75,197.74-179.28,155.98-307.19c-41.75-127.9-179.28-197.74-307.18-155.98
				c-127.9,41.75-197.74,179.28-155.98,307.18C1086.13,1086.89,1223.67,1156.72,1351.57,1114.97z"/>
			<path class="st44" d="M1108.46,764.93l8.35,3.49c58.61-78.51,162.67-109.78,255.15-75.88l5.85-14.02
				C1279.39,634.42,1162.99,671.56,1108.46,764.93z"/>
			<path class="st37" d="M1351.57,1114.97c-9.34,3.05-18.72,5.5-28.12,7.38c-11.88,4.15-4.2,31.32,18.91,28.48
				c6.39-1.59,12.76-3.41,19.11-5.49c120.78-39.43,195.78-154.37,189.77-275.44c-1.85,15.21-28.16,14.49-32.75-9.88
				C1529.33,971.17,1462.15,1078.87,1351.57,1114.97z"/>
			<path class="st45" d="M1001.13,862.5c5.33-16.07,30.06-6.02,31.21,15.77c2.1-100.63,66.92-193.46,168.02-226.47
				c21.3-6.95,42.88-10.81,64.24-11.82c19.51-5.22,1.48-32.63-16.63-30.77c-19.18,1.97-38.45,6-57.52,12.23
				C1081.18,657.11,1009.38,754.59,1001.13,862.5z"/>
		</g>
	</g>
	<path class="st26" d="M971.61,1027.93c3.12,3.49,32.31-8.49,36.36-13.7c6.06-7.79-11.14-22.58-18.94-26.97
		c-6.26-3.52-25.76-0.58-26.84,3.01C959,1000.89,966.06,1021.72,971.61,1027.93z"/>
	<path class="st26" d="M666.14,1056.18c0,0,9.44,20.32,15.48,24.4c2.3,1.55,14.36,2.1,19.11,3.63c7.5,2.41,24.84,8.97,24.07,14.22
		c-0.62,4.2-22.59-0.58-24.53,0.37c-3.42,1.69,15.14,32.55,21.74,39.02c1.61,1.58,0.03,5.76-2.25,6.94
		c-3.19,1.66-7.82-2.43-7.82-2.43s0.18,4.08-3.41,5.06c-2.42,0.66-6.37-3.46-6.37-3.46s1.1,4.41-3.03,5.49
		c-2.71,0.71-5.97-6.54-5.97-6.54s0.7,3.81-1.43,4.96c-2.93,1.59-9.96-6.26-13.4-9.63c-6.38-6.26-13.22-12.54-20.81-30
		c-3.49-8.03-14.44-33.11-14.44-33.11L666.14,1056.18z"/>
	<polygon class="st46" points="675.83,1066.84 656.78,1026.75 654.54,1037.13 	"/>
	<path class="st28" d="M654.86,794.83l35.17,66.29c0,0-73.81,93.11-73.88,103.07c-0.03,4.01,57.26,98.65,59.68,102.66
		c-17.49,9.84-26.38,12.79-32.77,16.94c-12-16.7-79.35-103.72-79.29-121.82C563.87,928.9,621.05,800.57,654.86,794.83z"/>
</g>
</svg>
